{
  "accessors": [
    {
      "bufferView": 2,
      "componentType": 5126,
      "count": 2344,
      "max": [
        0.53126460313797,
        0.7397413849830627,
        0.5564324259757996
      ],
      "min": [
        -0.5313169360160828,
        -0.3974153399467468,
        -0.5030872821807861
      ],
      "type": "VEC3"
    },
    {
      "bufferView": 2,
      "byteOffset": 28128,
      "componentType": 5126,
      "count": 2344,
      "max": [
        0.9994667768478394,
        0.9999403953552246,
        0.9993503093719482
      ],
      "min": [
        -0.9994746446609497,
        -0.9999264478683472,
        -0.9998936653137207
      ],
      "type": "VEC3"
    },
    {
      "bufferView": 1,
      "componentType": 5126,
      "count": 2344,
      "max": [
        0.5790805816650391,
        2.7435994148254395
      ],
      "min": [
        0.45668837428092957,
        -1.8429698944091797
      ],
      "type": "VEC2"
    },
    {
      "bufferView": 0,
      "componentType": 5125,
      "count": 12096,
      "type": "SCALAR"
    },
    {
      "bufferView": 2,
      "byteOffset": 56256,
      "componentType": 5126,
      "count": 1028,
      "max": [
        0.09028314799070358,
        0.04857378453016281,
        1.276555061340332
      ],
      "min": [
        -0.3507632315158844,
        -0.04857379570603371,
        1.2278077602386475
      ],
      "type": "VEC3"
    },
    {
      "bufferView": 2,
      "byteOffset": 68592,
      "componentType": 5126,
      "count": 1028,
      "max": [
        0.9829919934272766,
        0.985306978225708,
        0.9995746612548828
      ],
      "min": [
        -0.9829919934272766,
        -0.985304594039917,
        -0.9995746612548828
      ],
      "type": "VEC3"
    },
    {
      "bufferView": 1,
      "byteOffset": 18752,
      "componentType": 5126,
      "count": 1028,
      "max": [
        0.7637970447540283,
        0.6193947792053223
      ],
      "min": [
        0.6040450930595398,
        0.4133583903312683
      ],
      "type": "VEC2"
    },
    {
      "bufferView": 0,
      "byteOffset": 48384,
      "componentType": 5125,
      "count": 5940,
      "type": "SCALAR"
    },
    {
      "bufferView": 2,
      "byteOffset": 80928,
      "componentType": 5126,
      "count": 2314,
      "max": [
        0.6771052479743958,
        0.21451836824417114,
        0.03488408774137497
      ],
      "min": [
        -0.6771052479743958,
        -0.040784455835819244,
        -0.03429508954286575
      ],
      "type": "VEC3"
    },
    {
      "bufferView": 2,
      "byteOffset": 108696,
      "componentType": 5126,
      "count": 2314,
      "max": [
        1.0,
        0.9962922930717468,
        0.9999773502349854
      ],
      "min": [
        -1.0,
        -0.998375415802002,
        -0.9999240636825562
      ],
      "type": "VEC3"
    },
    {
      "bufferView": 1,
      "byteOffset": 26976,
      "componentType": 5126,
      "count": 2314,
      "max": [
        0.5676462054252625,
        0.6455709934234619
      ],
      "min": [
        0.47111305594444275,
        0.5006643533706665
      ],
      "type": "VEC2"
    },
    {
      "bufferView": 0,
      "byteOffset": 72144,
      "componentType": 5125,
      "count": 12288,
      "type": "SCALAR"
    },
    {
      "bufferView": 2,
      "byteOffset": 136464,
      "componentType": 5126,
      "count": 7168,
      "max": [
        0.1939023733139038,
        0.1807904988527298,
        1.2824431657791138
      ],
      "min": [
        -0.4543825089931488,
        0.0900043174624443,
        1.2098499536514282
      ],
      "type": "VEC3"
    },
    {
      "bufferView": 2,
      "byteOffset": 222480,
      "componentType": 5126,
      "count": 7168,
      "max": [
        0.9730492234230042,
        0.9845137000083923,
        0.9990248680114746
      ],
      "min": [
        -0.9730486273765564,
        -0.9845162630081177,
        -0.9988831877708435
      ],
      "type": "VEC3"
    },
    {
      "bufferView": 1,
      "byteOffset": 45488,
      "componentType": 5126,
      "count": 7168,
      "max": [
        0.34637829661369324,
        2.1804800033569336
      ],
      "min": [
        0.3279278874397278,
        -0.9015649557113647
      ],
      "type": "VEC2"
    },
    {
      "bufferView": 0,
      "byteOffset": 121296,
      "componentType": 5125,
      "count": 10752,
      "type": "SCALAR"
    },
    {
      "bufferView": 2,
      "byteOffset": 308496,
      "componentType": 5126,
      "count": 197,
      "max": [
        0.18241974711418152,
        0.005834633018821478,
        0.8126551508903503
      ],
      "min": [
        -0.22532100975513458,
        -0.05720348283648491,
        0.6187689900398254
      ],
      "type": "VEC3"
    },
    {
      "bufferView": 2,
      "byteOffset": 310860,
      "componentType": 5126,
      "count": 197,
      "max": [
        1.0,
        1.0,
        1.0
      ],
      "min": [
        -1.0,
        -1.0,
        -1.0
      ],
      "type": "VEC3"
    },
    {
      "bufferView": 1,
      "byteOffset": 102832,
      "componentType": 5126,
      "count": 197,
      "max": [
        0.2337682992219925,
        0.5636711120605469
      ],
      "min": [
        0.21250250935554504,
        0.561337947845459
      ],
      "type": "VEC2"
    },
    {
      "bufferView": 0,
      "byteOffset": 164304,
      "componentType": 5125,
      "count": 960,
      "type": "SCALAR"
    },
    {
      "bufferView": 2,
      "byteOffset": 313224,
      "componentType": 5126,
      "count": 204,
      "max": [
        0.15897509455680847,
        0.023202722892165184,
        0.8672569990158081
      ],
      "min": [
        -0.20187638700008392,
        -0.03851129487156868,
        0.8090652227401733
      ],
      "type": "VEC3"
    },
    {
      "bufferView": 2,
      "byteOffset": 315672,
      "componentType": 5126,
      "count": 204,
      "max": [
        1.0,
        1.0,
        1.0
      ],
      "min": [
        -1.0,
        -1.0,
        -1.0
      ],
      "type": "VEC3"
    },
    {
      "bufferView": 1,
      "byteOffset": 104408,
      "componentType": 5126,
      "count": 204,
      "max": [
        0.7782166004180908,
        0.46523988246917725
      ],
      "min": [
        0.756950855255127,
        0.4629065990447998
      ],
      "type": "VEC2"
    },
    {
      "bufferView": 0,
      "byteOffset": 168144,
      "componentType": 5125,
      "count": 960,
      "type": "SCALAR"
    },
    {
      "bufferView": 2,
      "byteOffset": 318120,
      "componentType": 5126,
      "count": 3250,
      "max": [
        0.6307588219642639,
        0.9455670118331909,
        0.402915894985199
      ],
      "min": [
        -0.6320045590400696,
        -0.24336938560009003,
        -0.6382805705070496
      ],
      "type": "VEC3"
    },
    {
      "bufferView": 2,
      "byteOffset": 357120,
      "componentType": 5126,
      "count": 3250,
      "max": [
        0.9997178316116333,
        0.999193549156189,
        0.9998593330383301
      ],
      "min": [
        -0.9991399049758911,
        -0.99867182970047,
        -0.9991496801376343
      ],
      "type": "VEC3"
    },
    {
      "bufferView": 1,
      "byteOffset": 106040,
      "componentType": 5126,
      "count": 3250,
      "max": [
        0.34341147541999817,
        0.8879802227020264
      ],
      "min": [
        0.2988172173500061,
        0.05699247121810913
      ],
      "type": "VEC2"
    },
    {
      "bufferView": 0,
      "byteOffset": 171984,
      "componentType": 5125,
      "count": 15456,
      "type": "SCALAR"
    },
    {
      "bufferView": 2,
      "byteOffset": 396120,
      "componentType": 5126,
      "count": 1180,
      "max": [
        0.5298892855644226,
        0.13319508731365204,
        0.5260350704193115
      ],
      "min": [
        -0.5298892855644226,
        -0.43779897689819336,
        0.03508778288960457
      ],
      "type": "VEC3"
    },
    {
      "bufferView": 2,
      "byteOffset": 410280,
      "componentType": 5126,
      "count": 1180,
      "max": [
        0.9791713356971741,
        0.9998345375061035,
        0.9990763664245605
      ],
      "min": [
        -0.9791713356971741,
        -0.9707646369934082,
        -0.9995323419570923
      ],
      "type": "VEC3"
    },
    {
      "bufferView": 1,
      "byteOffset": 132040,
      "componentType": 5126,
      "count": 1180,
      "max": [
        0.5615121126174927,
        1.8150970935821533
      ],
      "min": [
        0.49898988008499146,
        -0.939194917678833
      ],
      "type": "VEC2"
    },
    {
      "bufferView": 0,
      "byteOffset": 233808,
      "componentType": 5125,
      "count": 6384,
      "type": "SCALAR"
    }
  ],
  "asset": {
    "extras": {
      "author": "UARRR (https://sketchfab.com/UARRR)",
      "license": "CC-BY-4.0 (http://creativecommons.org/licenses/by/4.0/)",
      "source": "https://sketchfab.com/3d-models/avatar-00eacfdef34b445683086f5c4abc8922",
      "title": "Avatar"
    },
    "generator": "Sketchfab-12.67.0",
    "version": "2.0"
  },
  "bufferViews": [
    {
      "buffer": 0,
      "byteLength": 259344,
      "name": "floatBufferViews",
      "target": 34963
    },
    {
      "buffer": 0,
      "byteLength": 141480,
      "byteOffset": 259344,
      "byteStride": 8,
      "name": "floatBufferViews",
      "target": 34962
    },
    {
      "buffer": 0,
      "byteLength": 424440,
      "byteOffset": 400824,
      "byteStride": 12,
      "name": "floatBufferViews",
      "target": 34962
    }
  ],
  "buffers": [
    {
      "byteLength": 825264,
      "uri": "scene.bin"
    }
  ],
  "images": [
    {
      "uri": "textures/Material_emissive.png"
    }
  ],
  "materials": [
    {
      "doubleSided": true,
      "emissiveFactor": [
        1.0,
        1.0,
        1.0
      ],
      "emissiveTexture": {
        "index": 0
      },
      "name": "Material"
    }
  ],
  "meshes": [
    {
      "name": "Object_0",
      "primitives": [
        {
          "attributes": {
            "NORMAL": 1,
            "POSITION": 0,
            "TEXCOORD_0": 2
          },
          "indices": 3,
          "material": 0,
          "mode": 4
        }
      ]
    },
    {
      "name": "Object_1",
      "primitives": [
        {
          "attributes": {
            "NORMAL": 5,
            "POSITION": 4,
            "TEXCOORD_0": 6
          },
          "indices": 7,
          "material": 0,
          "mode": 4
        }
      ]
    },
    {
      "name": "Object_2",
      "primitives": [
        {
          "attributes": {
            "NORMAL": 9,
            "POSITION": 8,
            "TEXCOORD_0": 10
          },
          "indices": 11,
          "material": 0,
          "mode": 4
        }
      ]
    },
    {
      "name": "Object_3",
      "primitives": [
        {
          "attributes": {
            "NORMAL": 13,
            "POSITION": 12,
            "TEXCOORD_0": 14
          },
          "indices": 15,
          "material": 0,
          "mode": 4
        }
      ]
    },
    {
      "name": "Object_4",
      "primitives": [
        {
          "attributes": {
            "NORMAL": 17,
            "POSITION": 16,
            "TEXCOORD_0": 18
          },
          "indices": 19,
          "material": 0,
          "mode": 4
        }
      ]
    },
    {
      "name": "Object_5",
      "primitives": [
        {
          "attributes": {
            "NORMAL": 21,
            "POSITION": 20,
            "TEXCOORD_0": 22
          },
          "indices": 23,
          "material": 0,
          "mode": 4
        }
      ]
    },
    {
      "name": "Object_6",
      "primitives": [
        {
          "attributes": {
            "NORMAL": 25,
            "POSITION": 24,
            "TEXCOORD_0": 26
          },
          "indices": 27,
          "material": 0,
          "mode": 4
        }
      ]
    },
    {
      "name": "Object_7",
      "primitives": [
        {
          "attributes": {
            "NORMAL": 29,
            "POSITION": 28,
            "TEXCOORD_0": 30
          },
          "indices": 31,
          "material": 0,
          "mode": 4
        }
      ]
    }
  ],
  "nodes": [
    {
      "children": [
        1
      ],
      "matrix": [
        5.299923896789551,
        0.0,
        0.0,
        0.0,
        0.0,
        1.1768195077953682e-15,
        -5.299923896789551,
        0.0,
        0.0,
        5.299923896789551,
        1.1768195077953682e-15,
        0.0,
        0.0,
        0.0,
        0.0,
        1.0
      ],
      "name": "Sketchfab_model"
    },
    {
      "children": [
        2
      ],
      "name": "root"
    },
    {
      "children": [
        3,
        5,
        7,
        9,
        11,
        13,
        15,
        17
      ],
      "matrix": [
        1.0,
        0.0,
        0.0,
        0.0,
        0.0,
        2.220446049250313e-16,
        1.0,
        0.0,
        0.0,
        -1.0,
        2.220446049250313e-16,
        0.0,
        0.0,
        0.0,
        0.0,
        1.0
      ],
      "name": "GLTF_SceneRootNode"
    },
    {
      "children": [
        4
      ],
      "name": "Head_0"
    },
    {
      "mesh": 0,
      "name": "Object_4"
    },
    {
      "children": [
        6
      ],
      "matrix": [
        1.0,
        0.0,
        0.0,
        0.0,
        0.0,
        1.0,
        0.0,
        0.0,
        0.0,
        0.0,
        1.0,
        0.0,
        0.1302400380373001,
        0.1866050660610199,
        -0.8094952702522278,
        1.0
      ],
      "name": "Eyes_1"
    },
    {
      "mesh": 1,
      "name": "Object_6"
    },
    {
      "children": [
        8
      ],
      "name": "Ears_2"
    },
    {
      "mesh": 2,
      "name": "Object_8"
    },
    {
      "children": [
        10
      ],
      "matrix": [
        1.0,
        0.0,
        0.0,
        0.0,
        0.0,
        1.0,
        0.0,
        0.0,
        0.0,
        0.0,
        1.0,
        0.0,
        0.1302400380373001,
        0.1866050660610199,
        -0.8094952702522278,
        1.0
      ],
      "name": "Eyebrows_3"
    },
    {
      "mesh": 3,
      "name": "Object_10"
    },
    {
      "children": [
        12
      ],
      "matrix": [
        1.0,
        0.0,
        0.0,
        0.0,
        0.0,
        1.0,
        0.0,
        0.0,
        0.0,
        0.0,
        1.0,
        0.0,
        0.024057146161794662,
        -0.12437330931425095,
        -0.4205191135406494,
        1.0
      ],
      "name": "Tounge_4"
    },
    {
      "mesh": 4,
      "name": "Object_12"
    },
    {
      "children": [
        14
      ],
      "matrix": [
        1.0,
        0.0,
        0.0,
        0.0,
        0.0,
        1.0,
        0.0,
        0.0,
        0.0,
        0.0,
        1.0,
        0.0,
        0.024057146161794662,
        -0.07658408582210541,
        -0.4205191135406494,
        1.0
      ],
      "name": "Teeth_5"
    },
    {
      "mesh": 5,
      "name": "Object_14"
    },
    {
      "children": [
        16
      ],
      "name": "Hair_6"
    },
    {
      "mesh": 6,
      "name": "Object_16"
    },
    {
      "children": [
        18
      ],
      "name": "Beard_7"
    },
    {
      "mesh": 7,
      "name": "Object_18"
    }
  ],
  "samplers": [
    {
      "magFilter": 9729,
      "minFilter": 9987,
      "wrapS": 10497,
      "wrapT": 10497
    }
  ],
  "scene": 0,
  "scenes": [
    {
      "name": "Sketchfab_Scene",
      "nodes": [
        0
      ]
    }
  ],
  "textures": [
    {
      "sampler": 0,
      "source": 0
    }
  ]
}
