<svg viewBox="0 0 200 200" xmlns="http://www.w3.org/2000/svg">
  <defs>
    <filter id="blur">
      <feGaussianBlur stdDeviation="20" />
    </filter>
  </defs>
  <!-- <path fill="#27272a"
    d="M41.1,-69.5C51.8,-65.1,57.9,-51,63.8,-37.8C69.8,-24.6,75.6,-12.3,76.1,0.3C76.5,12.9,71.7,25.7,62.5,33.2C53.2,40.8,39.7,43,28.5,49.3C17.4,55.5,8.7,65.9,-3.7,72.3C-16.1,78.7,-32.2,81.2,-45,75.8C-57.8,70.5,-67.3,57.4,-75.1,43.5C-82.9,29.6,-89,14.8,-88.2,0.5C-87.4,-13.8,-79.6,-27.7,-67,-33.3C-54.4,-38.9,-36.9,-36.3,-25,-40C-13,-43.7,-6.5,-53.6,4.4,-61.1C15.2,-68.7,30.5,-73.9,41.1,-69.5Z"
    transform="translate(100 100)" filter="url(#blur)">
    <animate attributeName="d" dur="10000ms" repeatCount="indefinite"
      values="
        M41.1,-69.5C51.8,-65.1,57.9,-51,63.8,-37.8C69.8,-24.6,75.6,-12.3,76.1,0.3C76.5,12.9,71.7,25.7,62.5,33.2C53.2,40.8,39.7,43,28.5,49.3C17.4,55.5,8.7,65.9,-3.7,72.3C-16.1,78.7,-32.2,81.2,-45,75.8C-57.8,70.5,-67.3,57.4,-75.1,43.5C-82.9,29.6,-89,14.8,-88.2,0.5C-87.4,-13.8,-79.6,-27.7,-67,-33.3C-54.4,-38.9,-36.9,-36.3,-25,-40C-13,-43.7,-6.5,-53.6,4.4,-61.1C15.2,-68.7,30.5,-73.9,41.1,-69.5Z;
        M31.1,-56.4C38.8,-49.4,42.6,-38.1,51,-28C59.3,-17.8,72.3,-8.9,75.6,1.9C79,12.8,72.6,25.5,61.7,31.1C50.7,36.7,35.1,35.2,24,45C13,54.9,6.5,76.1,-2.8,80.9C-12,85.7,-24.1,74.1,-35.4,64.4C-46.7,54.8,-57.3,47,-64.1,36.5C-71,26.1,-74,13.1,-72.5,0.9C-71,-11.3,-64.9,-22.6,-57.5,-32.1C-50.1,-41.5,-41.4,-49,-31.6,-54.8C-21.8,-60.5,-10.9,-64.6,0.4,-65.3C11.7,-66,23.4,-63.4,31.1,-56.4Z;
        M33.2,-55.7C47,-49.4,65.2,-48.8,70.3,-40.4C75.5,-32.1,67.7,-16,64.9,-1.6C62.1,12.8,64.3,25.6,58.7,33.2C53.1,40.8,39.7,43.2,28.6,49C17.5,54.9,8.8,64.2,1,62.5C-6.8,60.8,-13.6,48.1,-20.8,40C-27.9,31.8,-35.5,28.3,-45.6,22.5C-55.8,16.6,-68.6,8.3,-70.4,-1C-72.2,-10.4,-63,-20.7,-56.8,-33.4C-50.5,-46,-47.2,-60.9,-38.2,-70.1C-29.2,-79.2,-14.6,-82.5,-2.5,-78.2C9.6,-73.9,19.3,-62,33.2,-55.7Z;
        M41.1,-69.5C51.8,-65.1,57.9,-51,63.8,-37.8C69.8,-24.6,75.6,-12.3,76.1,0.3C76.5,12.9,71.7,25.7,62.5,33.2C53.2,40.8,39.7,43,28.5,49.3C17.4,55.5,8.7,65.9,-3.7,72.3C-16.1,78.7,-32.2,81.2,-45,75.8C-57.8,70.5,-67.3,57.4,-75.1,43.5C-82.9,29.6,-89,14.8,-88.2,0.5C-87.4,-13.8,-79.6,-27.7,-67,-33.3C-54.4,-38.9,-36.9,-36.3,-25,-40C-13,-43.7,-6.5,-53.6,4.4,-61.1C15.2,-68.7,30.5,-73.9,41.1,-69.5Z" />
  </path> -->
</svg>